<svg xmlns="http://www.w3.org/2000/svg" width="174" height="32" viewBox="0 0 174 32" fill="none"><path d="M15.9822 32C14.1462 32 12.2978 31.6872 10.5199 31.0406L9.80651 30.7809C9.25262 30.5794 9.09436 29.871 9.51225 29.4531L16.6882 22.2759C16.763 22.2009 16.8518 22.1414 16.9496 22.1008C17.0474 22.0602 17.1523 22.0393 17.2582 22.0393C17.3641 22.0393 17.4689 22.0602 17.5667 22.1008C17.6645 22.1414 17.7534 22.2009 17.8281 22.2759L18.5131 22.9609C18.8284 23.2761 18.8284 23.7868 18.5131 24.1008L13.9929 28.621C13.7604 28.8534 13.8878 29.2614 14.213 29.3047C18.3128 29.8499 22.5177 28.4837 25.4961 25.5041C29.2016 21.7987 30.4763 16.3116 28.5191 10.9754C28.5079 10.9445 28.4943 10.9124 28.4807 10.8815C24.2919 1.53445 12.9222 0.0804675 6.4955 6.50592C3.51707 9.48435 2.15211 13.6917 2.69611 17.7891C2.73938 18.1155 3.14739 18.2428 3.37983 18.0092L7.50933 13.8784C7.5841 13.8034 7.67293 13.7439 7.77074 13.7033C7.86854 13.6627 7.9734 13.6419 8.07929 13.6419C8.18519 13.6419 8.29005 13.6627 8.38785 13.7033C8.48566 13.7439 8.57449 13.8034 8.64926 13.8784L9.33422 14.5634C9.40921 14.6382 9.46871 14.727 9.5093 14.8248C9.5499 14.9226 9.5708 15.0275 9.5708 15.1334C9.5708 15.2392 9.5499 15.3441 9.5093 15.4419C9.46871 15.5397 9.40921 15.6286 9.33422 15.7033L2.54651 22.4898C2.12985 22.9065 1.42017 22.7494 1.21864 22.1955L0.959002 21.4821C-1.15891 15.6502 0.29754 9.05533 4.67184 4.68103C12.3423 -2.98451 25.9165 -1.23504 30.888 9.92697C30.9003 9.95541 30.9127 9.98508 30.9226 10.0135C33.2544 16.371 31.7361 22.9139 27.3186 27.329C24.2795 30.368 20.1649 32 15.981 32H15.9822Z" fill="#003C73"></path><path d="M18.0309 16.217C17.9562 16.1421 17.8673 16.0826 17.7695 16.042C17.6717 16.0014 17.5669 15.9805 17.461 15.9805C17.3551 15.9805 17.2502 16.0014 17.1524 16.042C17.0546 16.0826 16.9658 16.1421 16.891 16.217L7.09146 26.0166L5.87858 27.2295C5.54723 27.5608 5.55959 28.111 5.92062 28.409C6.19633 28.6364 6.47575 28.8541 6.76259 29.0593C7.0791 29.2868 7.51801 29.2386 7.79373 28.9629L9.19949 27.5571L18.7146 18.0419C18.7896 17.9672 18.8491 17.8783 18.8897 17.7805C18.9303 17.6827 18.9512 17.5779 18.9512 17.472C18.9512 17.3661 18.9303 17.2612 18.8897 17.1634C18.8491 17.0656 18.7896 16.9768 18.7146 16.902L18.0309 16.2183V16.217Z" fill="#003C73"></path><path d="M15.1019 13.2854C15.0271 13.2104 14.9383 13.1509 14.8405 13.1103C14.7427 13.0697 14.6378 13.0488 14.5319 13.0488C14.426 13.0488 14.3212 13.0697 14.2234 13.1103C14.1256 13.1509 14.0367 13.2104 13.962 13.2854L4.44557 22.8018L3.04228 24.2051C2.76657 24.4808 2.71835 24.9197 2.94585 25.2362C3.15232 25.5231 3.36869 25.8037 3.59494 26.0782C3.89291 26.4392 4.44434 26.4516 4.77445 26.1202L5.9861 24.9086L15.7856 15.1091C15.8606 15.0343 15.9201 14.9455 15.9607 14.8477C16.0013 14.7498 16.0222 14.645 16.0222 14.5391C16.0222 14.4332 16.0013 14.3283 15.9607 14.2305C15.9201 14.1327 15.8606 14.0439 15.7856 13.9691L15.1019 13.2854Z" fill="#003C73"></path><path d="M109.198 17.8002C108.917 17.7013 108.603 17.8237 108.467 18.0883C107.531 19.8971 105.692 21.0197 103.667 21.0197H103.661C100.778 21.016 98.3051 18.5779 98.2606 15.6959C98.2383 14.237 98.791 12.8609 99.816 11.8198C100.842 10.7776 102.21 10.2039 103.667 10.2039C105.511 10.2039 107.209 11.1349 108.213 12.6952C108.292 12.8168 108.411 12.9059 108.55 12.9462C108.689 12.9864 108.838 12.975 108.969 12.914L110.66 12.1252C109.319 9.43611 106.615 7.79297 103.657 7.79297C103.278 7.79297 102.893 7.82017 102.508 7.87581C99.0618 8.37159 96.2824 11.2486 95.8979 14.7179C95.6469 16.9792 96.3368 19.1491 97.8402 20.8281C98.5741 21.6476 99.4724 22.3032 100.477 22.7522C101.481 23.2013 102.568 23.4337 103.669 23.4344C106.893 23.4344 109.796 21.4314 110.957 18.4295L109.199 17.8014L109.198 17.8002Z" fill="#003C73"></path><path d="M64.0341 12.3875C63.9822 12.4728 63.9253 12.5569 63.8771 12.6459C62.4441 15.3301 61.0074 18.013 59.5807 20.7021C59.305 21.2214 58.9402 21.5589 58.3159 21.5799C57.6668 21.6022 57.2229 21.3302 56.9225 20.7652C56.1992 19.4039 55.4648 18.0488 54.7341 16.6913C54.0034 15.3338 53.2739 13.9762 52.5432 12.6187C52.4987 12.5358 52.4455 12.4567 52.3503 12.2972V23.411H49.843C49.838 23.301 49.8281 23.1959 49.8281 23.0908C49.8281 18.1663 49.8294 13.2406 49.8207 8.31609C49.8207 8.03667 49.9023 7.95878 50.1731 7.96743C50.8766 7.99216 51.5801 7.98969 52.2836 8.00205C52.5593 8.007 52.7794 8.11209 52.9166 8.36802C54.5659 11.4416 56.219 14.5128 57.8658 17.5877C57.9944 17.8288 58.0859 18.0896 58.2046 18.3616C58.2553 18.3171 58.3035 18.2936 58.3245 18.2553C59.2666 16.4304 60.1976 14.5994 61.1484 12.7782C61.884 11.3687 62.6531 9.97531 63.3899 8.56584C63.5853 8.19245 63.8387 7.98721 64.2702 7.99092C64.9737 7.99587 65.6772 7.98351 66.3807 7.97238C66.5625 7.96991 66.6317 8.05274 66.6206 8.2246C66.6169 8.29383 66.6206 8.36307 66.6206 8.43231V22.9993C66.6206 23.2861 66.4747 23.4296 66.1829 23.4296C65.5684 23.4296 64.954 23.4234 64.3395 23.4333C64.1367 23.437 64.0613 23.3776 64.0625 23.165C64.07 19.802 64.0699 16.4403 64.0737 13.0774C64.0737 12.8561 64.0959 12.6335 64.1083 12.4122C64.0848 12.4036 64.0601 12.3949 64.0366 12.3875H64.0341Z" fill="#003C73"></path><path d="M147.247 15.4128C147.768 15.6391 148.304 15.8221 148.789 16.0941C149.96 16.7506 150.38 17.8225 150.325 19.1096C150.238 21.1224 148.963 22.4874 147.108 23.0784C146.364 23.3145 145.603 23.4233 144.826 23.4258C142.904 23.4307 140.98 23.427 139.057 23.427C139.009 23.427 138.961 23.4221 138.892 23.4184V8.002C138.985 7.99705 139.08 7.98716 139.175 7.98716C141.058 7.98963 142.942 7.97727 144.825 8.00323C145.788 8.0156 146.734 8.17262 147.628 8.56207C149.177 9.23714 149.95 10.4599 149.893 12.1364C149.842 13.6102 148.977 14.7489 147.475 15.3189C147.393 15.3498 147.313 15.3856 147.248 15.4116L147.247 15.4128ZM141.753 16.7185V21.1793C142.769 21.1793 143.768 21.1867 144.767 21.1744C145.081 21.1706 145.401 21.1397 145.708 21.0717C146.942 20.7973 147.506 19.9466 147.476 18.7931C147.444 17.5555 146.746 16.8038 145.484 16.7333C144.251 16.664 143.013 16.7185 141.752 16.7185H141.753ZM141.758 10.1483V14.6747C142.464 14.6747 143.146 14.692 143.829 14.6685C144.321 14.6512 144.819 14.6191 145.3 14.5239C146.378 14.3112 146.916 13.7598 146.999 12.694C147.111 11.2425 146.592 10.5304 145.429 10.3536C144.227 10.1718 142.992 10.2077 141.758 10.1471V10.1483Z" fill="#003C73"></path><path d="M137.231 23.4207C136.422 23.4207 135.67 23.4417 134.919 23.4133C134.439 23.3947 134.162 23.0745 134.005 22.6393C133.68 21.738 133.343 20.8428 133.031 19.9378C132.946 19.6905 132.828 19.6126 132.566 19.6151C130.644 19.6275 128.721 19.6262 126.799 19.6151C126.56 19.6139 126.454 19.6868 126.376 19.9131C126.069 20.7996 125.741 21.6786 125.42 22.5589C125.186 23.1994 124.857 23.4281 124.17 23.4281H122.146C122.43 22.7048 122.699 22.0186 122.969 21.3324C124.683 16.9878 126.399 12.6444 128.105 8.29732C128.202 8.05252 128.321 7.97462 128.579 7.98081C129.352 7.99811 130.124 7.99193 130.898 7.98328C131.089 7.98081 131.195 8.02284 131.272 8.22066C133.014 12.6704 134.765 17.1164 136.514 21.5636C136.713 22.0693 136.915 22.5738 137.112 23.0782C137.151 23.1759 137.183 23.2773 137.234 23.4182L137.231 23.4207ZM129.698 10.8319C128.892 13.0598 128.081 15.2964 127.258 17.5677H132.148C131.319 15.2853 130.504 13.0487 129.698 10.8319Z" fill="#003C73"></path><path d="M95.4775 23.4114C94.659 23.4114 93.8776 23.4411 93.1 23.4003C92.6512 23.3768 92.4002 23.0405 92.2518 22.6288C91.9217 21.7089 91.5767 20.794 91.2528 19.8729C91.1861 19.6825 91.0983 19.6157 90.8943 19.6157C88.9321 19.6231 86.97 19.6244 85.0079 19.6145C84.7829 19.6145 84.7 19.7047 84.6333 19.8939C84.3205 20.7779 83.9965 21.6582 83.6751 22.5397C83.4327 23.2037 83.1138 23.4275 82.409 23.4287H80.3974C80.5817 22.9552 80.7523 22.5101 80.9278 22.0675C82.7391 17.4756 84.5541 12.8836 86.3568 8.28804C86.4495 8.05189 86.5645 7.97771 86.808 7.98265C87.5907 7.99625 88.3745 7.99378 89.1572 7.98265C89.3562 7.98018 89.4489 8.042 89.5231 8.23116C91.2664 12.6809 93.0171 17.1269 94.7666 21.5741C94.9657 22.0798 95.1672 22.5843 95.3662 23.0887C95.4046 23.1864 95.4355 23.2878 95.4787 23.4114H95.4775ZM87.948 10.8337C87.1406 13.0617 86.3296 15.2983 85.5074 17.5683H90.3985C89.5676 15.2859 88.7541 13.0493 87.948 10.8337Z" fill="#003C73"></path><path d="M72.9333 23.4177H70.081V8.00998C70.1552 8.00256 70.2306 7.98896 70.306 7.98896C72.1 7.99143 73.8928 7.97412 75.6868 8.00503C76.8044 8.02482 77.8838 8.26096 78.8704 8.81733C80.3405 9.6457 81.0131 10.9513 81.0947 12.5883C81.159 13.8865 80.8845 15.0969 80.0301 16.1256C79.3205 16.9811 78.3907 17.5004 77.3237 17.7143C76.4756 17.8837 75.6002 17.9307 74.7347 17.99C74.1462 18.0308 73.5515 17.9974 72.9333 17.9974V23.4165V23.4177ZM72.9803 10.1613C72.9729 10.1897 72.9643 10.2181 72.9568 10.2466C72.9494 10.2639 72.9358 10.2824 72.9358 10.2997C72.9333 12.048 72.9321 13.7962 72.9272 15.5445C72.9272 15.7101 73.0075 15.7435 73.1472 15.741C73.988 15.7299 74.8312 15.7534 75.6694 15.7027C76.5065 15.6508 77.2495 15.3479 77.754 14.6283C78.1002 14.1338 78.2077 13.565 78.2226 12.9753C78.2597 11.5114 77.529 10.526 76.0812 10.3146C75.0624 10.165 74.0152 10.2058 72.9816 10.1625L72.9803 10.1613Z" fill="#003C73"></path><path d="M172.378 16.7702H166.989V21.1099H173.835V23.4046H164.117V8.01172H173.836V10.2669H166.986V14.5373H172.376V16.7702H172.378Z" fill="#003C73"></path><path d="M111.274 8H123.438V10.338H118.794V23.4065H115.927V10.3553H111.274V8Z" fill="#003C73"></path><path d="M162.019 21.0399V23.4088H152.991V8.00977H155.82V21.0399H162.019Z" fill="#003C73"></path><path d="M43.4904 8H46.3415V23.4065H43.4904V8Z" fill="#003C73"></path></svg>